<svg xmlns="http://www.w3.org/2000/svg" width="32" height="32" viewBox="0 0 32 32" fill="none">
<rect width="32" height="32" rx="4" fill="#191919"/>
<path d="M21.7157 11.4968C21.6757 13.373 20.0994 14.8535 18.2221 14.8535H14.8548V23.679C14.8555 23.7209 14.8478 23.7625 14.8323 23.8014C14.8167 23.8403 14.7936 23.8758 14.7642 23.9056C14.7348 23.9355 14.6998 23.9592 14.6611 23.9754C14.6225 23.9916 14.581 24 14.5391 24H12.887C12.8447 24.0007 12.8026 23.9929 12.7634 23.977C12.7241 23.9611 12.6884 23.9375 12.6585 23.9075C12.6286 23.8776 12.6049 23.8419 12.5891 23.8027C12.5732 23.7634 12.5654 23.7214 12.5661 23.679V14.8535H10.5994C10.5162 14.8519 10.4368 14.8181 10.3779 14.7593C10.3191 14.7004 10.2853 14.6211 10.2837 14.5379V12.8868C10.2853 12.8027 10.3198 12.7226 10.3798 12.6636C10.4398 12.6046 10.5205 12.5714 10.6046 12.5711H18.2473C18.865 12.5711 19.4175 12.0671 19.4291 11.4494C19.4326 11.297 19.4056 11.1453 19.3497 11.0035C19.2938 10.8616 19.2101 10.7323 19.1035 10.6232C18.997 10.5141 18.8697 10.4274 18.7292 10.3681C18.5887 10.3089 18.4377 10.2783 18.2852 10.2782H15.1747C15.0906 10.278 15.0099 10.2448 14.9499 10.1858C14.8899 10.1268 14.8554 10.0467 14.8537 9.96255V8.31573C14.8537 8.27383 14.8621 8.23234 14.8783 8.19369C14.8945 8.15505 14.9182 8.12001 14.9481 8.09062C14.9779 8.06124 15.0134 8.0381 15.0523 8.02255C15.0912 8.007 15.1328 7.99935 15.1747 8.00004H18.2852C18.7413 7.99996 19.1929 8.09084 19.6135 8.26736C20.0341 8.44389 20.4152 8.70252 20.7346 9.02812C21.0541 9.35372 21.3054 9.73975 21.4738 10.1636C21.6422 10.5875 21.7245 11.0407 21.7157 11.4968V11.4968Z" fill="white"/>
<path d="M20.5728 22.0374V23.679C20.5735 23.7209 20.5659 23.7625 20.5503 23.8014C20.5348 23.8403 20.5116 23.8757 20.4823 23.9056C20.4529 23.9355 20.4178 23.9592 20.3792 23.9754C20.3405 23.9916 20.2991 23.9999 20.2572 23.9999H17.4623C17.4204 23.9999 17.3789 23.9916 17.3403 23.9754C17.3016 23.9592 17.2666 23.9355 17.2372 23.9056C17.2078 23.8757 17.1847 23.8403 17.1691 23.8014C17.1536 23.7625 17.1459 23.7209 17.1466 23.679V17.5189C17.1466 17.4352 17.1799 17.3549 17.2391 17.2957C17.2983 17.2365 17.3786 17.2032 17.4623 17.2032H19.1081C19.1918 17.2032 19.2721 17.2365 19.3313 17.2957C19.3905 17.3549 19.4238 17.4352 19.4238 17.5189V21.546C19.424 21.5913 19.4422 21.6347 19.4744 21.6666C19.5065 21.6985 19.55 21.7165 19.5953 21.7165H20.2466C20.2894 21.715 20.332 21.7223 20.3719 21.7379C20.4118 21.7534 20.4481 21.7769 20.4786 21.807C20.5091 21.837 20.5332 21.8729 20.5494 21.9125C20.5656 21.9521 20.5736 21.9946 20.5728 22.0374V22.0374Z" fill="white"/>
</svg>